<?xml version="1.0" encoding="UTF-8"?>
<svg id="Layer_1" xmlns="http://www.w3.org/2000/svg" version="1.1" viewBox="0 0 88 31">
  <!-- Generator: Adobe Illustrator 29.8.3, SVG Export Plug-In . SVG Version: 2.1.1 Build 3)  -->
  <defs>
    <style>
      .st0 {
        fill: #000000
      }

      .st1 {
        fill: #fff;
      }
    </style>
  </defs>
  <rect class="st0" width="88" height="31"/>
  <g>
    <path class="st1" d="M13.5,11.4c0,1.5-.2,2.7-.4,3.7h-2.2v2.2h1.3c-1.2,1.9-2.8,1.9-2.8,1.9v2.2s3.5,0,5.3-4.1h2.5v-2.2h-1.8c0-.5.2-1,.2-1.5h3.5v5.6h-1.9v2.2h4.1v-10"/>
    <path class="st1" d="M32.5,11.4v-1.9h-2.2v1.9h-6.7v2.2h0v1.9h2.2v-1.9h4.5s0,5.6-5.6,5.6h-1.1v2.2h1.1s7.8,0,7.8-7.8h3v-2.2h-3Z"/>
    <g>
      <rect class="st1" x="42.1" y="13.6" width="6.3" height="4.5"/>
      <path class="st1" d="M37.7,7.3v16.4h43.2V7.3h-43.2ZM50.7,13.6v7.8h-2.2v-1.1h-6.3v1.1h-2.2v-10h10.8v2.2ZM62.9,21.3c-1.8-.8-3.2-1.7-4.4-2.8l1.5-1.6c1,.9,2.2,1.7,3.8,2.4l-.9,2h0ZM63.5,16.9c-.9-.2-1.5-.5-2-.9.4-.6.7-1.4.9-2.3h-4.3v1.5c0,6.3-5.2,6.3-5.2,6.3v-2.2c3,0,3-4.1,3-4.1v-1.5h-3v-2.2h3v-1.9h2.2v1.9h6.7s0,2.8-1.3,5.4ZM78.6,13.6v7.8h-4.1v-2.2h1.9v-5.6h-3.5c0,.5-.1,1-.2,1.5h1.8v2.2h-2.5c-1.8,4.1-5.3,4.1-5.3,4.1v-2.2s1.6,0,2.8-1.9h-1.3v-2.2h2.2c.2-1,.4-2.2.4-3.7h7.8v2.2h0Z"/>
      <path class="st1" d="M42.1,13.6h6.3v4.5h-6.3v-4.5Z"/>
    </g>
    <rect class="st1" x="7.9" y="7.3" width="29.8" height=".7"/>
    <rect class="st1" x="7.9" y="22.9" width="29.8" height=".7"/>
    <rect class="st1" x="7.2" y="7.3" width=".7" height="16.4"/>
  </g>
</svg>