<?xml version="1.0" encoding="UTF-8"?>
<svg id="Layer_1" xmlns="http://www.w3.org/2000/svg" version="1.1" viewBox="0 0 88 31">
  <!-- Generator: Adobe Illustrator 29.8.3, SVG Export Plug-In . SVG Version: 2.1.1 Build 3)  -->
  <defs>
    <style>
      .st0 {
        fill: #000000;
      }

      .st1 {
        fill: #fff;
      }
    </style>
  </defs>
  <rect class="st0" width="88" height="31"/>
  <g>
    <path class="st1" d="M70.6,11.1c-2.4,2.4-4.3,4.3-4.3,4.3,0,0,2.2,2.2,2.2,2.2s1.2-1.2,1.2-1.2-.2-.2-.5-.5-.5-.5-.5-.5,1.2-1.2,2.6-2.6,2.6-2.6,2.6-2.6c0,0,0,.3,0,3v2.9l.4.4c.2.2.5.4.5.4s.2-.2.4-.4l.4-.4V7.6l-.5-.5c-.2-.2-.5-.5-.5-.5s-2,1.9-4.3,4.3Z"/>
    <path class="st1" d="M71.6,13.8c-.9.9-1.6,1.6-1.6,1.6,0,0,5,5,5,5s1.1-1.1,2.5-2.4c2.2-2.2,2.4-2.4,2.4-2.5,0,0-.8-.8-1.6-1.7s-1.6-1.6-1.6-1.6c0,0,0,.6,0,1.3v1.2l.4.4c.2.2.4.4.4.4,0,0-2.4,2.4-2.4,2.4s-2.4-2.4-2.4-2.4.2-.2.4-.4l.4-.4v-1.2c0-.7,0-1.2,0-1.3,0,0,0,0,0,0s-.8.7-1.6,1.6Z"/>
    <path class="st1" d="M80.7,14c-.3.3-.6.6-.6.6s.2.2.4.4c.2.2.4.4.5.5h0c0,0-3,3.1-3,3.1-1.7,1.7-3,3-3,3s-.2-.2-.5-.4c-.2-.2-.5-.4-.5-.4,0,0,0,.2,0,1.3v1.3l.4.4c.2.2.4.4.4.4,0,0,8.7-8.6,8.7-8.7s-2.2-2.2-2.3-2.2c0,0-.3.3-.6.6Z"/>
  </g>
  <g>
    <path class="st1" d="M8,10.7c0,.6.2,1.4.5,1.8.4.6.8.6,4.6.2,2.3-.2,4.4-.3,4.7-.3.3.1-.3.6-1.2,1-.9.4-3.7,2.2-6.2,3.8-2.5,1.6-4.7,3-4.9,3-.5,0-.6,1.5-.1,2.2.3.4,1.5.3,7-.9l6.7-1.3,1,1.2,1,1.2,1.3-.6c1.5-.7,3.6-3.4,3.6-4.6s-.7-2.8-1.6-3.6c-.7-.6-.8-.6-2.1.4-.7.6-1.7,1.8-2.2,2.8-.8,1.6-1,1.7-2.6,1.9-1,.1-2.8.4-4.2.6-1.3.2-2.4.3-2.5.2-.2-.2,6.3-4,9.4-5.5,2.6-1.2,2.6-1.3,2.1-2.7l-.4-.9h-6.3c-3.4-.2-6.6-.4-6.9-.6-.6-.3-.7-.1-.7.8ZM24.9,16c0,.8-1.6,3.3-2.7,4.2s-1.7.3-.9-1.3c1.3-2.7,3.7-4.6,3.7-2.9Z"/>
    <path class="st1" d="M31,10.7c-3.1,1-3.6,1.4-2.5,2.5s.7.5,2-.1l1.5-.7-1.7,3.4c-1,2.2-1.6,3.7-1.5,4.3.1.7,0,.9-.9,1.1-1.2.3-1.2.9.1,1.6.8.4,1.2.4,3.8-.7,3.1-1.3,6.3-3.8,6.3-5s-.7-2.2-1.3-2.2-.6-.5.7-1.4c2.4-1.5,1.3-3.9-1.9-3.8-.8,0-2.9.4-4.6,1ZM37.2,11.4c0,.2-3.9,3.2-4.2,3.2-.5,0,1.2-2.8,1.9-3.1.7-.3,2.3-.4,2.3-.1ZM36.1,16.4c.4.2,0,.6-1.1,1.4-1.9,1.3-3.9,2.4-4.5,2.4s0-.7.4-1.6c1.1-1.9,3.7-3.1,5.1-2.2Z"/>
    <path class="st1" d="M50.2,11.9c-.1.2,0,.8.4,1.3.5.7.8.9,1.4.7.4-.1,2.1-.3,3.6-.4l2.8-.2-2.6,1.8c-1.4,1-3.4,2.4-4.3,3.1s-1.6,1.2-1.5,1c.1-.2.4-.9.7-1.4.4-.9.4-1.3,0-2.4-1.1-3.1-2.3-3.4-4.3-1.2-1.7,1.9-2.2,2.9-2.5,4.7l-.2,1.5-1-1.5-1-1.5,1.4-.7c3.1-1.6,2.2-4.4-1.5-4.3-2.1,0-3,.6-2.3,1.4.3.4.2,1.2-.7,3.4-.9,2.3-1,3.1-.7,3.4.7.8.9.6,1.4-1.2.3-.9.6-1.7.7-1.6.1,0,.7.7,1.3,1.6,1.4,2,4.3,3.5,5.5,2.8.6-.3.9-.3,1.2.2.4.5.6.6,1.2.3,1-.6,9.3-2.3,10.8-2.3s1.3-.2,1.3-.6c0-.9-1.7-1-5.5-.4-1.9.3-3.6.6-3.7.5-.2-.2,7.9-5.2,8.8-5.4.8-.2.9-.9.4-2-.4-.6-.9-.7-5.8-.7s-5.5.1-5.6.4ZM43.6,13.8c.4.3.2.6-.9,1.3-.8.5-1.5.9-1.6.8s0-.6.3-1.3c.4-1.1,1.2-1.4,2.2-.8ZM49.8,15.1c.4,1.1-2.7,5.5-3.9,5.5s-.4-1.8,1.6-4.4c1.3-1.6,1.9-1.9,2.2-1Z"/>
  </g>
</svg>