<?xml version="1.0" encoding="UTF-8"?>
<svg id="Layer_2" data-name="Layer 2" xmlns="http://www.w3.org/2000/svg" viewBox="0 0 2392.65 2465.7">
  <defs>
    <style>
      .cls-1, .cls-2 {
        fill: #fff;
      }

      .cls-2 {
        fill-rule: evenodd;
      }
    </style>
  </defs>
  <g id="Layer_1-2" data-name="Layer 1">
    <g>
      <path class="cls-1" d="M2098.69,2029.75c-1017.7,484.34-1649.3,79.11-2053.6-167.02-25.02-15.51-67.54,3.63-30.65,46,134.69,163.32,576.12,556.97,1152.3,556.97s919.59-314.61,962.5-369.49c42.62-54.42,12.51-84.44-30.56-66.46h0ZM2384.51,1871.91c-27.33-35.59-166.18-42.22-253.57-31.49-87.52,10.43-218.89,63.91-207.47,96.03,5.86,12.03,17.82,6.63,77.95,1.23,60.29-6.02,229.18-27.33,264.37,18.67,35.36,46.32-53.87,266.99-70.16,302.58-15.74,35.59,6.02,44.77,35.59,21.06,29.17-23.69,81.97-85.05,117.4-171.89,35.19-87.31,56.65-209.1,35.88-236.2h0Z"/>
      <path class="cls-2" d="M1414.4,1041.46c0,127.08,3.21,233.07-61.02,345.92-51.84,91.77-133.97,148.19-225.72,148.19-125.26,0-198.2-95.43-198.2-236.28,0-278.03,249.12-328.5,484.95-328.5v70.65ZM1743.35,1836.55c-21.57,19.26-52.76,20.65-77.08,7.79-108.27-89.92-127.55-131.67-187.19-217.47-178.93,182.6-305.56,237.19-537.7,237.19-274.36,0-488.16-169.3-488.16-508.34,0-264.72,143.61-445.03,347.76-533.11,177.1-78,424.39-91.77,613.42-113.32v-42.21c0-77.54,5.96-169.3-39.46-236.28-39.92-60.1-116.08-84.88-183.07-84.88-124.33,0-235.36,63.77-262.43,195.9-5.51,29.37-27.07,58.28-56.43,59.65l-316.57-33.94c-26.6-5.98-55.96-27.53-48.62-68.37C580.77,115.62,927.15,0,1237.29,0c158.75,0,366.12,42.21,491.37,162.42,158.75,148.18,143.6,345.92,143.6,561.1v508.34c0,152.78,63.31,219.76,122.95,302.35,21.1,29.36,25.7,64.7-.92,86.71-66.53,55.51-184.9,158.75-250.04,216.56l-.92-.92"/>
      <path class="cls-1" d="M2098.69,2029.75c-1017.7,484.34-1649.3,79.11-2053.6-167.02-25.02-15.51-67.54,3.63-30.65,46,134.69,163.32,576.12,556.97,1152.3,556.97s919.59-314.61,962.5-369.49c42.62-54.42,12.51-84.44-30.56-66.46h0ZM2384.51,1871.91c-27.33-35.59-166.18-42.22-253.57-31.49-87.52,10.43-218.89,63.91-207.47,96.03,5.86,12.03,17.82,6.63,77.95,1.23,60.29-6.02,229.18-27.33,264.37,18.67,35.36,46.32-53.87,266.99-70.16,302.58-15.74,35.59,6.02,44.77,35.59,21.06,29.17-23.69,81.97-85.05,117.4-171.89,35.19-87.31,56.65-209.1,35.88-236.2h0Z"/>
      <path class="cls-2" d="M1414.4,1041.46c0,127.08,3.21,233.07-61.02,345.92-51.84,91.77-133.97,148.19-225.72,148.19-125.26,0-198.2-95.43-198.2-236.28,0-278.03,249.12-328.5,484.95-328.5v70.65ZM1743.35,1836.55c-21.57,19.26-52.76,20.65-77.08,7.79-108.27-89.92-127.55-131.67-187.19-217.47-178.93,182.6-305.56,237.19-537.7,237.19-274.36,0-488.16-169.3-488.16-508.34,0-264.72,143.61-445.03,347.76-533.11,177.1-78,424.39-91.77,613.42-113.32v-42.21c0-77.54,5.96-169.3-39.46-236.28-39.92-60.1-116.08-84.88-183.07-84.88-124.33,0-235.36,63.77-262.43,195.9-5.51,29.37-27.07,58.28-56.43,59.65l-316.57-33.94c-26.6-5.98-55.96-27.53-48.62-68.37C580.77,115.62,927.15,0,1237.29,0c158.75,0,366.12,42.21,491.37,162.42,158.75,148.18,143.6,345.92,143.6,561.1v508.34c0,152.78,63.31,219.76,122.95,302.35,21.1,29.36,25.7,64.7-.92,86.71-66.53,55.51-184.9,158.75-250.04,216.56l-.92-.92"/>
    </g>
  </g>
</svg>