<?xml version="1.0" encoding="UTF-8"?>
<svg id="Layer_2" data-name="Layer 2" xmlns="http://www.w3.org/2000/svg" viewBox="0 0 2432 2432">
  <defs>
    <style>
      .cls-1 {
        fill: #fff;
        fill-rule: evenodd;
      }
    </style>
  </defs>
  <g id="Layer_1-2" data-name="Layer 1">
    <g>
      <rect width="2432" height="2432"/>
      <g>
        <path class="cls-1" d="M1166.6,1349.23c176.49-38.09,424.76-148.53,559.87-462.57l-111.56-164.67h.09l-54.8-215.24L1521.27,0l-329.33,456h-456L406.6,0l-38.94,506.76-51.79,211.2-114.47,168.7c156.03,362.55,462.76,453.75,635.87,475.52h0l-228,1069.82h1114.67s-22.89-408.71-557.33-1082.77h0ZM1240.44,772.67h289.18c0,125.82-100.68,228-224.72,228s-88.76-14.07-124.41-38.09l59.96-189.91h0ZM623.06,1000.67c-45.98,0-88.76-14.07-124.41-38.09l59.96-189.91h289.18c0,125.82-100.68,228-224.72,228h0Z"/>
        <path class="cls-1" d="M1977.27,1418.67c-14.92,694.51-253.33,1013.33-253.33,1013.33,357.67-328.77,506.67-886.67,506.67-886.67,0,0-101.71-53.01-253.33-126.67Z"/>
      </g>
    </g>
  </g>
</svg>