<?xml version="1.0" encoding="UTF-8"?>
<svg id="Layer_2" data-name="Layer 2" xmlns="http://www.w3.org/2000/svg" viewBox="0 0 90 75">
  <defs>
    <style>
      .cls-1 {
        fill: #fff;
        fill-rule: evenodd;
      }
    </style>
  </defs>
  <g id="Layer_1-2" data-name="Layer 1">
    <path class="cls-1" d="M31.81,0c5.02,0,9.09,4.07,9.09,9.09v62.12c0,2.09-1.7,3.79-3.79,3.79h-8.33c-2.09,0-3.79-1.7-3.79-3.79h0V19.54c0-2.09-1.7-3.79-3.79-3.79h-1.52c-2.09,0-3.79,1.7-3.79,3.79v51.68c0,2.09-1.7,3.79-3.79,3.79H3.79C1.7,75,0,73.3,0,71.21t0,0V3.79C0,1.7,1.7,0,3.79,0h28.02ZM80.91,0c5.02,0,9.09,4.07,9.09,9.09v15.63c0,1.67-1.36,3.03-3.03,3.03h-10.6c-1.67,0-3.03-1.36-3.03-3.03v-6.7c0-1.25-1.02-2.27-2.27-2.27h-3.79c-1.25,0-2.27,1.02-2.27,2.27h0v38.96c0,.84.68,1.51,1.51,1.51h6.06c.84,0,1.51-.68,1.51-1.51v-7.49h-1.51c-1.67,0-3.03-1.36-3.03-3.03v-9.69c0-1.67,1.36-3.03,3.03-3.03h14.39c1.67,0,3.03,1.36,3.03,3.03v29.13c0,5.02-4.07,9.09-9.09,9.09h-22.72c-5.02,0-9.09-4.07-9.09-9.09h0V9.09c0-5.02,4.07-9.09,9.09-9.09h22.72Z"/>
  </g>
</svg>