<?xml version="1.0" encoding="UTF-8"?>
<svg id="Layer_2" data-name="Layer 2" xmlns="http://www.w3.org/2000/svg" viewBox="0 0 800 440">
  <defs>
    <style>
      .cls-1 {
        fill: #fff;
        fill-rule: evenodd;
      }
    </style>
  </defs>
  <g id="Layer_1-2" data-name="Layer 1">
    <g id="Page-1">
      <g id="Dribbble-Light-Preview">
        <g id="icons">
          <path id="soundcloud-_164_" data-name="soundcloud-[#164]" class="cls-1" d="M343.43,429.92V28.78c0-12.75,3.84-20.41,11.55-22.85,128.5-30.39,258.31,59.26,270.11,194.3,125.62-53.05,234.84,106.8,137.49,202.79-24.67,24.32-54.25,36.48-88.76,36.48l-323.72-.35c-4.28-1.43-6.68-5.88-6.68-9.24h0ZM256.35,418.12c0,28.98,55.09,29.36,55.09,0V32.18c0-36.52-55.09-36.37-55.09,0v385.94h0ZM170.79,418.12c0,28.32,55.05,29.43,55.05,0v-227.48c0-36.52-55.05-36.37-55.05,0v227.48h0ZM85.56,406.3c0,29.16,54.73,29.63,54.73,0v-249.22c0-35.29-54.73-35.72-54.73,0v249.22ZM0,360.6c0,34.02,54.69,42.62,54.69,0v-106.93c0-36.19-54.69-35.88-54.69,0v106.93Z"/>
        </g>
      </g>
    </g>
  </g>
</svg>