<?xml version="1.0" encoding="UTF-8"?>
<svg id="svg1" xmlns="http://www.w3.org/2000/svg" version="1.1" xmlns:inkscape="http://www.inkscape.org/namespaces/inkscape" xmlns:sodipodi="http://sodipodi.sourceforge.net/DTD/sodipodi-0.dtd" xmlns:svg="http://www.w3.org/2000/svg" viewBox="0 0 256 256">
  <!-- Generator: Adobe Illustrator 29.8.3, SVG Export Plug-In . SVG Version: 2.1.1 Build 3)  -->
  <defs>
    <style>
      .st0 {
        fill: #fff;
      }
    </style>
  </defs>
  <sodipodi:namedview id="namedview1" bordercolor="#000000" borderopacity="0.25" inkscape:current-layer="g1" inkscape:cx="127.81422" inkscape:cy="128" inkscape:deskcolor="#d1d1d1" inkscape:pagecheckerboard="0" inkscape:pageopacity="0.0" inkscape:showpageshadow="2" inkscape:window-height="928" inkscape:window-maximized="1" inkscape:window-width="1600" inkscape:window-x="0" inkscape:window-y="0" inkscape:zoom="2.6914062" pagecolor="#ffffff"/>
  <g id="g1" inkscape:groupmode="layer" inkscape:label="Image">
    <path id="path1" class="st0" d="M29,.3C14,3.5,1.5,15.2,0,31c-1.6,16.3,0,33.6,0,50v102c0,18.8-4.7,44.2,7.3,60,13,17.1,36.8,13,55.7,13h146c5.8,0,12.3.8,18-.3,15-3.1,27.5-14.9,29-30.7,1.6-16.3,0-33.6,0-50v-102c0-18.8,4.7-44.2-7.3-60C235.6-4.1,211.8,0,193,0H47c-5.8,0-12.3-.8-18,.3M120,91l-7,19h12l-10,24,9,1c-1,2.7-2.3,7.7-4.3,9.8-1.5,1.5-3.7,1.2-5.7,1.2-4.4,0-13.2,1.8-15.5-3-1.1-2.2.5-5,1.3-7,1.8-4.2,4.2-8.5,5.2-13-2.2,0-4.9.4-7-.3-7.8-2.9.9-15.4,2.7-19.7,1.3-3,2.8-9.6,5.5-11.5,3.9-2.7,9.7-.8,13.8-.5M41,154c2.8,0,6.8.8,8.5-2,1.8-3,.5-9.6.5-13v-33c0-3.1-1.6-12.5,1.2-14.5,2.2-1.6,11.7-1.3,12.7,1.5,1.6,4.5.2,12.2.2,17v32c0,5.5.9,11.9-1.3,17-2.2,4.9-12.3,9.3-17.3,5.5-2.2-1.7-3.8-7.9-4.3-10.5M193,91v5c3.7,0,8.4-.8,12,.3,12,3.7,11,15.4,11,25.7,2,0,4-.2,6,.3,11.5,2.9,10,14.4,10,23.7s.9,10.8-2.3,15c-3.6,4.6-9.5,4-14.7,4s-4.3.5-5.7-.5c-2.6-1.9-3.8-7.5-4.3-10.5,3.3,0,9.2,1.1,11.8-1.3,3.1-2.9,1.8-14.2-1.8-16.2-1.9-1-4.9-.5-7-.5h-15v29h-14v-29h-14v-14h14v-12h-9v-14h9v-5h14M161,96v14h-8v42h13v13h-46l5.3-12.5,12.7-.5v-42h-8v-14h31M218,110c0-2.8-.5-6.3.3-9,3.3-10.8,19.6-2.1,11.5,6.8-.9,1-2.5,1.5-3.8,1.8-2.6.6-5.4.3-8,.3M41,110l-4.2,37-6.8,12-6-16,3-33h14M87,110l3,33-6,15h-2c-5.4-8.5-6.1-17.3-7-27-.7-6.9-2-14-2-21h14M193,110v12h9v-12h-9M118,152l-5,13h-22l5.3-13.5,7.7.2,14,.3Z"/>
  </g>
</svg>