<?xml version="1.0" encoding="UTF-8"?>
<svg id="Shopicons" xmlns="http://www.w3.org/2000/svg" version="1.1" viewBox="0 0 800 800">
  <!-- Generator: Adobe Illustrator 29.8.1, SVG Export Plug-In . SVG Version: 2.1.1 Build 2)  -->
  <defs>
    <style>
      .st0 {
        fill: #fff;
      }
    </style>
  </defs>
  <path class="st0" d="M784.6,215.7h0c-12.1-45-47.2-80.1-92.2-92.2-59.6-16-268.3-16.4-291.9-16.4s-232.3.5-291.9,16.4c-45,12.1-80.1,47.2-92.2,92.2C.2,276.3,0,394.6,0,399.6s.2,123.2,16.4,183.8c12.1,45,47.2,80.1,92.2,92.2,59.6,16,268.3,16.4,291.9,16.4h0c23.6,0,232.3-.5,291.9-16.4,45-12.1,80.1-47.2,92.2-92.2,16.2-60.6,16.4-178.8,16.4-183.8s-.2-123.2-16.4-183.8ZM528.9,409.6c-1.8,3.1-4.3,5.6-7.4,7.4l-173.7,100.3c-3.1,1.8-6.5,2.7-10.1,2.7h0c-11.1,0-20.2-9-20.2-20.2v-200.6c0-11.1,8.9-20.1,20-20.2,3.6,0,7.1.9,10.2,2.7l173.7,100.3c9.6,5.6,12.9,17.9,7.4,27.5Z"/>
</svg>