<?xml version="1.0" encoding="UTF-8"?>
<svg id="Layer_2" data-name="Layer 2" xmlns="http://www.w3.org/2000/svg" viewBox="0 0 749.8 749.8">
  <defs>
    <style>
      .cls-1 {
        fill: #fff;
      }
    </style>
  </defs>
  <g id="Layer_1-2" data-name="Layer 1">
    <path class="cls-1" d="M302.55,485.5v-221.18l191.58,110.6-191.58,110.58ZM374.9,180.33c-107.45,0-194.57,87.1-194.57,194.57s87.1,194.58,194.57,194.58,194.58-87.1,194.58-194.58h0c-.17-107.4-87.17-194.4-194.55-194.57h-.03ZM374.9,596.83h0c-122.57,0-221.92-99.38-221.92-221.93s99.37-221.92,221.92-221.92,221.92,99.37,221.92,221.92h0v.02c0,122.55-99.35,221.92-221.92,221.92h-.03l.03-.02ZM374.9,0h0C167.85,0,0,167.85,0,374.9s167.85,374.9,374.9,374.9,374.9-167.85,374.9-374.9h0C749.73,167.88,581.93.08,374.92,0h-.02Z"/>
  </g>
</svg>